<?xml version="1.0" standalone="no"?>
<!DOCTYPE svg PUBLIC "-//W3C//DTD SVG 20010904//EN"
 "http://www.w3.org/TR/2001/REC-SVG-20010904/DTD/svg10.dtd">
<svg version="1.0" xmlns="http://www.w3.org/2000/svg"
 width="300.000000pt" height="225.000000pt" viewBox="0 0 300.000000 225.000000"
 preserveAspectRatio="xMidYMid meet">
<metadata>
Created by potrace 1.10, written by Peter Selinger 2001-2011
</metadata>
<g transform="translate(0.000000,225.000000) scale(0.100000,-0.100000)"
fill="#000000" stroke="none">
<path d="M1066 1942 l-416 -297 0 -422 0 -423 50 0 50 0 0 396 -1 396 367 263
366 263 82 -53 c44 -28 224 -147 399 -263 l318 -210 2 -394 2 -393 48 -3 47
-3 0 420 0 420 -32 24 c-18 14 -220 149 -450 300 l-416 275 -416 -296z m442
251 c15 -10 29 -20 32 -23 3 -3 17 -11 31 -18 14 -8 39 -24 55 -37 27 -22 27
-23 6 -18 -13 3 -26 12 -29 19 -3 8 -9 12 -13 9 -5 -3 -14 1 -22 8 -7 7 -32
22 -55 33 -23 10 -43 25 -43 32 0 16 6 15 38 -5z m274 -216 c167 -107 359
-230 428 -274 l125 -79 3 -397 c1 -263 -1 -397 -8 -397 -7 0 -10 135 -10 394
l0 394 -382 244 c-210 133 -400 255 -423 270 l-42 26 -381 -271 -382 -272 0
-392 c0 -255 -4 -393 -10 -393 -6 0 -10 137 -10 390 0 359 1 391 18 405 32 28
757 544 764 545 3 0 143 -87 310 -193z m-72 76 c0 -7 -39 17 -46 28 -3 6 5 3
20 -6 14 -10 26 -19 26 -22z m50 -28 c19 -14 30 -25 24 -25 -10 1 -73 50 -63
50 3 0 20 -11 39 -25z m-1079 -408 c-10 -9 -11 -8 -5 6 3 10 9 15 12 12 3 -3
0 -11 -7 -18z"/>
<path d="M1429 1990 c-77 -23 -123 -92 -117 -173 2 -29 8 -60 12 -69 7 -16 2
-18 -36 -18 -50 0 -97 -26 -132 -73 -16 -22 -21 -43 -21 -95 0 -80 23 -121 88
-154 76 -39 163 -19 215 50 23 31 27 44 26 101 -2 76 -5 95 -24 140 -11 28
-11 34 1 42 26 16 31 9 27 -42 l-3 -51 33 6 c29 4 33 3 26 -12 -4 -9 -9 -34
-12 -54 -15 -125 117 -221 236 -172 174 72 123 328 -64 328 -46 0 -51 2 -43
17 14 26 11 106 -5 137 -41 79 -127 117 -207 92z m-12 -67 c-23 -68 -19 -171
9 -224 l17 -33 -32 27 c-18 15 -38 27 -45 27 -18 0 -46 65 -46 106 0 48 32
107 72 133 18 11 36 21 39 21 3 0 -3 -26 -14 -57z m87 35 c21 -30 20 -45 -4
-51 -17 -4 -20 0 -22 26 l-1 32 -4 -32 c-4 -27 -9 -33 -28 -33 -22 0 -24 2
-14 27 22 57 47 68 73 31z m48 6 c30 -16 31 -17 13 -30 -26 -19 -29 -18 -42
16 -13 35 -12 35 29 14z m64 -59 c24 -36 28 -95 11 -137 -15 -35 -15 -36 -51
-24 -23 7 -34 16 -31 24 3 8 5 25 5 38 0 21 4 24 40 24 22 0 40 5 40 10 0 6
-15 8 -40 4 -30 -5 -40 -3 -40 7 0 8 -3 23 -6 35 -4 15 1 23 18 31 33 16 36
16 54 -12z m-84 -35 c3 -20 0 -30 -8 -30 -7 0 -19 -3 -28 -6 -12 -5 -16 1 -16
23 0 34 6 43 31 43 11 0 18 -10 21 -30z m-62 -10 c0 -25 -4 -30 -25 -30 -21 0
-25 5 -25 30 0 25 4 30 25 30 21 0 25 -5 25 -30z m66 -46 c-3 -9 -6 -24 -6
-35 0 -14 -7 -19 -25 -19 -21 0 -25 5 -25 29 0 20 6 31 18 34 35 9 44 7 38 -9z
m-66 -24 c0 -16 -4 -30 -9 -30 -5 0 -16 -3 -25 -6 -13 -5 -16 1 -16 30 0 32 3
36 25 36 21 0 25 -5 25 -30z m60 -45 c0 -14 -29 -73 -39 -79 -7 -5 -11 8 -11
38 0 42 2 46 25 46 14 0 25 -2 25 -5z m45 -11 c14 -6 12 -11 -11 -35 -40 -42
-58 -39 -37 6 18 37 21 39 48 29z m44 -56 c-10 -29 -18 -68 -19 -85 0 -30 -3
-33 -32 -35 l-33 -1 32 -4 c23 -3 33 -10 38 -30 3 -14 5 -26 3 -28 -2 -1 -12
-7 -23 -14 -19 -12 -19 -12 2 -6 17 5 25 0 38 -24 23 -45 1 -39 -50 12 -74 75
-67 170 17 235 23 18 42 32 43 32 1 0 -6 -24 -16 -52z m85 30 c21 -30 20 -38
-4 -38 -15 0 -20 7 -21 28 -2 26 -2 26 -6 2 -3 -13 -12 -30 -21 -38 -16 -13
-16 -13 1 -8 14 5 17 -1 17 -38 0 -39 -3 -44 -26 -49 -26 -5 -26 -5 -22 53 4
60 28 110 53 110 7 0 21 -10 29 -22z m56 7 c33 -17 66 -59 75 -97 6 -22 3 -26
-26 -32 -52 -10 -56 -8 -63 36 -6 36 -4 45 16 61 l23 18 -23 -11 c-26 -13 -25
-14 -41 18 -14 27 -3 29 39 7z m-431 -27 c17 -30 16 -32 -16 -42 -21 -7 -22
-5 -17 26 4 25 3 29 -5 18 -6 -8 -11 -23 -11 -32 0 -10 -7 -18 -16 -18 -16 0
-16 7 1 55 7 20 6 20 -9 1 -9 -11 -16 -26 -16 -34 0 -10 -8 -12 -27 -8 -25 6
-26 5 -8 -5 11 -7 21 -13 23 -14 2 -2 0 -19 -3 -39 -7 -34 -9 -36 -47 -36 -40
0 -40 0 -34 33 19 98 147 164 185 95z m37 11 c16 -17 16 -22 4 -29 -10 -6 -16
-5 -19 3 -2 7 -10 20 -19 30 -13 15 -13 17 0 17 8 0 23 -9 34 -21z m63 -48
c24 -24 36 -79 27 -123 -11 -55 -18 -60 -57 -41 -28 15 -33 23 -31 46 3 24 7
27 45 29 l42 1 -41 4 c-39 4 -42 6 -47 40 -10 59 24 82 62 44z m303 -31 c2
-26 -1 -40 -8 -40 -7 0 -19 -3 -28 -6 -13 -5 -16 2 -16 40 0 42 2 46 24 46 21
0 24 -6 28 -40z m-382 6 c0 -6 3 -21 6 -32 5 -18 1 -22 -25 -26 -29 -4 -31 -2
-33 26 l-1 31 -4 -32 c-4 -27 -9 -33 -29 -33 -21 0 -24 4 -24 38 l0 37 55 1
c33 0 55 -4 55 -10z m487 -83 c-8 -49 -16 -54 -57 -40 -30 10 -35 16 -32 39 3
27 4 28 81 36 10 2 12 -7 8 -35z m-105 -8 c-3 -18 -11 -25 -28 -25 -33 0 -35
47 -1 52 31 6 35 2 29 -27z m-372 2 c0 -31 -5 -35 -35 -29 -27 5 -35 36 -12
45 30 13 47 7 47 -16z m310 -2 c0 -14 -4 -25 -9 -25 -5 0 -16 -3 -25 -6 -12
-5 -16 0 -16 19 0 24 11 35 38 36 6 1 12 -10 12 -24z m-446 -7 c9 -35 8 -38
-20 -49 -15 -5 -24 -12 -21 -15 3 -3 14 -1 25 5 17 9 22 7 31 -19 14 -41 23
-38 15 5 -5 31 -4 35 15 35 18 0 21 -6 21 -46 0 -33 -3 -43 -12 -38 -7 5 -20
9 -29 9 -30 2 -68 34 -89 75 -28 54 -26 60 19 60 32 0 40 -4 45 -22z m66 -2
c0 -17 -7 -25 -25 -28 -22 -5 -25 -2 -25 23 0 24 4 29 25 29 20 0 25 -5 25
-24z m59 -42 c7 -6 -31 -84 -41 -84 -4 0 -8 23 -8 51 0 48 1 50 23 43 12 -3
24 -8 26 -10z m321 -24 c0 -48 -13 -52 -30 -9 -11 26 -11 32 1 40 24 15 29 10
29 -31z m45 4 c-8 -20 -15 -38 -15 -40 0 -2 -4 -4 -10 -4 -5 0 -10 18 -10 40
0 36 2 40 25 40 25 0 25 0 10 -36z m70 26 c23 -9 25 -13 14 -26 -14 -17 -62
-44 -78 -44 -5 0 -2 18 7 40 19 44 19 44 57 30z m-390 -12 c14 -6 24 -16 22
-22 -4 -12 -66 -50 -72 -45 -3 4 17 79 22 79 1 0 14 -5 28 -12z"/>
<path d="M1378 1903 c7 -3 16 -2 19 1 4 3 -2 6 -13 5 -11 0 -14 -3 -6 -6z"/>
<path d="M1353 1813 c9 -2 23 -2 30 0 6 3 -1 5 -18 5 -16 0 -22 -2 -12 -5z"/>
<path d="M1578 1663 c7 -3 16 -2 19 1 4 3 -2 6 -13 5 -11 0 -14 -3 -6 -6z"/>
<path d="M1340 1250 c0 -62 -5 -90 -21 -121 -24 -48 -52 -50 -57 -3 -2 24 2
33 22 42 29 13 42 47 26 67 -17 21 -37 19 -50 -4 -16 -31 -13 -136 5 -151 21
-17 45 -5 58 30 l11 29 11 -32 c22 -69 75 -24 75 65 0 79 -22 102 -55 56 -14
-21 -15 -19 -9 40 5 44 3 62 -5 62 -7 0 -11 -27 -11 -80z m-40 -33 c0 -23 -17
-47 -32 -47 -8 0 -1 45 9 63 9 15 23 6 23 -16z m110 -27 c0 -43 -20 -100 -35
-100 -8 0 -15 6 -15 14 0 7 -2 26 -5 42 -7 37 31 106 46 83 5 -8 9 -25 9 -39z"/>
<path d="M1040 1292 c0 -28 38 -190 50 -211 11 -20 15 -11 34 79 l13 65 13
-60 c7 -33 17 -69 23 -80 10 -18 10 -18 19 5 10 27 48 194 48 210 0 6 -4 9 -8
6 -5 -3 -17 -50 -27 -106 -10 -56 -22 -95 -25 -88 -4 7 -15 53 -25 101 -10 48
-23 90 -28 94 -5 3 -6 -7 -2 -25 4 -19 -1 -64 -11 -109 l-17 -78 -24 104 c-23
105 -33 132 -33 93z"/>
<path d="M1529 1273 c-2 -26 3 -188 6 -192 2 -2 15 -1 28 3 49 12 78 143 41
180 -16 16 -73 22 -75 9z m71 -20 c3 -3 5 -26 4 -51 -1 -55 -22 -105 -47 -110
-15 -3 -17 6 -17 81 0 46 3 87 7 90 6 7 42 0 53 -10z"/>
<path d="M1786 1271 c-4 -7 -5 -15 -2 -18 9 -9 19 4 14 18 -4 11 -6 11 -12 0z"/>
<path d="M1646 1215 c-3 -8 -8 -37 -12 -63 -7 -58 13 -90 47 -72 10 6 19 16
19 21 0 6 8 1 18 -11 l19 -23 20 20 c18 18 21 18 31 4 10 -15 12 -15 24 0 11
14 17 15 31 4 15 -11 16 -14 2 -25 -23 -19 -18 -40 10 -40 32 0 39 25 36 141
-1 54 -2 56 -28 55 -29 -1 -35 -13 -48 -99 -10 -64 -26 -31 -19 39 5 45 3 64
-5 64 -7 0 -11 -19 -11 -49 0 -28 -4 -53 -10 -56 -6 -4 -10 6 -10 24 0 32 -18
81 -30 81 -4 0 -10 -18 -14 -41 -8 -53 -32 -99 -51 -99 -23 0 -19 57 4 69 25
14 34 40 20 57 -15 18 -35 18 -43 -1z m34 -14 c0 -10 -7 -24 -15 -31 -12 -10
-15 -10 -15 3 0 23 11 47 21 47 5 0 9 -8 9 -19z m196 -45 c0 -31 -4 -60 -9
-63 -5 -3 -6 4 -2 18 7 23 7 24 -9 4 -14 -19 -15 -17 -16 36 0 31 3 59 7 63
17 17 28 -5 29 -58z m-127 -28 c1 -26 -3 -38 -13 -38 -22 0 -27 28 -15 74 10
35 13 38 20 21 4 -11 8 -37 8 -57z m124 -68 c-3 -11 -12 -20 -19 -20 -17 0
-18 12 -2 28 18 18 27 15 21 -8z"/>
<path d="M1953 1218 c-6 -7 -13 -22 -16 -33 -3 -15 -5 -12 -7 10 -1 26 -3 23
-15 -20 -17 -61 -17 -64 -4 -45 8 11 9 7 4 -17 -4 -19 -2 -33 3 -33 5 0 13 19
16 43 4 23 13 56 21 72 13 29 13 27 14 -42 1 -39 5 -74 10 -77 13 -9 33 21 28
41 -4 14 -5 13 -6 -4 0 -13 -6 -23 -12 -23 -7 0 -10 23 -7 67 3 66 -7 88 -29
61z"/>
<path d="M934 1047 c-2 -7 -3 -62 -2 -123 l3 -109 598 -3 598 -2 -3 122 -3
123 -115 1 -115 0 110 -5 110 -6 3 -112 3 -113 -591 0 -591 0 3 113 3 112 440
5 440 5 -443 3 c-358 2 -444 -1 -448 -11z"/>
<path d="M950 935 l0 -105 580 0 580 0 0 105 0 105 -112 -2 -113 -2 108 -3
107 -4 0 -94 0 -95 -570 0 -570 0 0 95 0 95 433 3 432 2 -437 3 -438 2 0 -105z"/>
<path d="M1024 984 c9 -9 24 -42 34 -75 9 -32 19 -59 22 -59 7 0 30 62 29 76
0 5 -4 0 -8 -11 -6 -16 -11 -10 -25 33 -15 44 -21 52 -43 52 -22 0 -23 -1 -9
-16z"/>
<path d="M1111 960 c11 -22 22 -54 26 -70 9 -49 19 -44 43 23 13 34 30 68 38
75 14 10 13 12 -4 12 -12 0 -20 -7 -21 -18 -1 -10 -8 -34 -15 -53 l-14 -34
-16 47 c-12 35 -13 48 -5 52 7 2 -2 5 -20 5 l-31 1 19 -40z"/>
<path d="M1508 993 c8 -3 12 -27 12 -68 0 -41 -4 -65 -12 -68 -7 -3 -2 -6 12
-6 24 -1 26 2 22 32 -4 38 23 73 34 43 3 -9 4 -30 2 -46 -4 -27 -2 -30 21 -29
14 0 20 3 14 6 -7 2 -13 22 -13 43 0 41 -22 59 -46 39 -11 -9 -14 -5 -14 25 0
31 -3 36 -22 35 -13 0 -17 -3 -10 -6z"/>
<path d="M1227 939 c-9 -6 -15 -14 -12 -20 9 -14 25 -11 25 6 0 8 5 15 10 15
6 0 10 -18 10 -40 0 -23 -5 -40 -11 -40 -6 0 -9 9 -6 20 6 22 0 25 -22 11 -26
-17 -5 -40 36 -39 38 0 39 1 35 37 -7 57 -26 72 -65 50z"/>
<path d="M1319 937 c15 -15 14 -74 -1 -80 -7 -3 3 -5 22 -5 19 0 29 2 23 5 -7
2 -13 22 -13 43 0 30 -4 39 -21 43 -17 4 -19 3 -10 -6z"/>
<path d="M1370 929 c0 -12 5 -19 12 -17 18 6 20 25 3 31 -10 5 -15 0 -15 -14z"/>
<path d="M1416 928 c-21 -29 -20 -41 4 -63 21 -19 70 -14 70 6 0 8 -5 7 -15
-1 -25 -20 -47 -4 -43 32 3 31 28 53 28 25 0 -9 -6 -18 -12 -20 -7 -3 -1 -6
15 -6 32 -1 37 23 8 39 -28 15 -38 13 -55 -12z"/>
<path d="M1645 930 c-40 -45 20 -105 65 -65 25 23 25 40 0 65 -25 25 -42 25
-65 0z m50 -31 c0 -24 -5 -35 -17 -37 -14 -3 -18 4 -18 31 0 18 3 37 7 41 15
14 28 -2 28 -35z"/>
<path d="M1749 906 c4 -48 11 -53 60 -54 l36 -1 -3 44 c-3 30 -9 44 -20 48
-14 3 -17 -4 -17 -36 0 -23 -5 -42 -12 -44 -9 -3 -13 8 -13 35 0 29 -5 41 -18
44 -15 4 -17 -1 -13 -36z"/>
<path d="M1870 930 c-9 -17 -6 -23 22 -40 28 -17 30 -20 13 -26 -12 -5 -22 -1
-31 11 -12 17 -14 17 -14 2 0 -18 42 -33 59 -22 21 12 12 45 -16 56 -19 7 -23
13 -15 21 8 8 15 8 27 -2 8 -7 15 -8 15 -2 0 10 -23 22 -40 22 -5 0 -14 -9
-20 -20z"/>
<path d="M1966 931 c-25 -28 -17 -64 17 -75 22 -8 31 -6 45 9 9 11 10 14 3 7
-8 -6 -23 -12 -33 -12 -14 0 -18 8 -18 40 0 39 12 52 26 29 3 -6 0 -15 -7 -20
-11 -7 -9 -9 7 -9 30 0 36 11 17 32 -21 23 -36 23 -57 -1z"/>
</g>
</svg>
